<svg id="Layer_1" data-name="Layer 1" xmlns="http://www.w3.org/2000/svg" viewBox="0 0 21.92 23.09"><defs><style>.cls-1{fill:#d1d3d4;}.cls-2{fill:#2b3a57;}.cls-3{fill:#fff;}.cls-4{fill:#f48521;}</style></defs><path class="cls-1" d="M412.94,451.49c0-.25,0-.51,0-.78s0-.47,0-.7v-8.26a2.58,2.58,0,0,0-2.59-2.58H393.62a2.57,2.57,0,0,0-2.58,2.58v9.75h0a10.93,10.93,0,0,0,21.86,0h0Z" transform="translate(-391.04 -439.17)"/><path class="cls-2" d="M409.42,456.26l-.9-1.56a7.07,7.07,0,0,1-13,0l-.9,1.56h-2.05a10.47,10.47,0,0,0,18.94,0Z" transform="translate(-391.04 -439.17)"/><path class="cls-3" d="M394.64,457.48l1-.78.07.09-1,.78Z" transform="translate(-391.04 -439.17)"/><path class="cls-3" d="M395.57,457.19l.07.08-.67.59-.08-.08Zm.25-.22.07.08-.13.12-.08-.08Z" transform="translate(-391.04 -439.17)"/><path class="cls-3" d="M395.45,458.36c-.13.13-.25.22-.4.06a.2.2,0,0,1,0-.31h0l.08.08h0a.1.1,0,0,0,0,.16c.07.07.14,0,.23-.06l.09-.08a.16.16,0,0,1-.18-.05c-.09-.09-.06-.19.07-.32l.26-.26c.12-.11.24-.13.33,0a.14.14,0,0,1,0,.17l.06-.05.07.07-.18.16Zm.22-.68-.26.24c-.08.09-.1.15-.05.2s.16,0,.25-.07l.19-.19c.08-.07.14-.14.06-.21S395.74,457.61,395.67,457.68Z" transform="translate(-391.04 -439.17)"/><path class="cls-3" d="M396.06,458.73l-.1.12-.07-.07,0-.06a.15.15,0,0,1-.17,0c-.1-.09-.06-.21,0-.31h0a.24.24,0,0,1,.39,0l0,0,.1-.12c.05-.06.08-.11,0-.16s-.11,0-.16,0v0l-.09-.08,0,0a.2.2,0,0,1,.31,0,.19.19,0,0,1,0,.3Zm.11-.28,0,0c-.08-.07-.15-.07-.24,0h0c-.06.06-.09.13,0,.18s.14,0,.23-.08Z" transform="translate(-391.04 -439.17)"/><path class="cls-3" d="M396.83,458.73l.15-.22.09.06-.05.08a.15.15,0,0,1,.18,0,.13.13,0,0,1,.06.17.16.16,0,0,1,.19,0c.07.05.12.13,0,.27l-.4.58-.09-.06.39-.56c0-.06.06-.12,0-.16s-.14,0-.2.09l-.35.52-.1-.07.38-.55c.06-.09.06-.13,0-.17s-.14,0-.2.1l-.35.51-.09-.06Z" transform="translate(-391.04 -439.17)"/><path class="cls-3" d="M397.86,459.84l-.11.21-.09-.05a.28.28,0,0,1,0-.08.17.17,0,0,1-.2,0c-.06,0-.14-.11,0-.29l.33-.6.1.05-.32.58c-.05.1,0,.15,0,.18s.12,0,.21-.13l.28-.52.1.05Z" transform="translate(-391.04 -439.17)"/><path class="cls-3" d="M398.29,459.63l.12-.25.09,0a.23.23,0,0,1,0,.09.17.17,0,0,1,.19,0c.09,0,.14.12.07.27l-.28.64-.11-.05.28-.61c0-.09,0-.14,0-.17s-.13,0-.21.15l-.24.54-.1-.05Z" transform="translate(-391.04 -439.17)"/><path class="cls-3" d="M399,459.65l.1,0-.31.84-.11,0Zm.12-.32.1,0-.06.17-.11,0Z" transform="translate(-391.04 -439.17)"/><path class="cls-3" d="M399.54,460.47v0c-.05.14-.12.25-.3.2s-.16-.18-.11-.35l.11-.34c.05-.15.14-.24.29-.19s.16.18.13.3l0,0-.1,0v0c0-.08,0-.15-.05-.18s-.12,0-.15.13l-.12.37c0,.08,0,.17,0,.2s.11,0,.15-.14v0Z" transform="translate(-391.04 -439.17)"/><path class="cls-3" d="M399.92,459.93l.11,0-.21.88-.11,0Zm.08-.32.11,0,0,.18-.11,0Z" transform="translate(-391.04 -439.17)"/><path class="cls-3" d="M400.23,460.85l-.07.38-.11,0,.17-.93c0-.12,0-.2,0-.25h.11a.87.87,0,0,0,0,.1.16.16,0,0,1,.18-.08c.12,0,.17.11.13.29l-.07.38c0,.19-.13.26-.24.24A.15.15,0,0,1,400.23,460.85Zm.26-.14.07-.38c0-.11,0-.16-.07-.17s-.14.06-.16.18l-.06.28c0,.11,0,.22.08.24S400.47,460.82,400.49,460.71Z" transform="translate(-391.04 -439.17)"/><path class="cls-3" d="M401.23,460.92a1.25,1.25,0,0,0,0,.15h-.1V461a.15.15,0,0,1-.15.08c-.13,0-.17-.13-.16-.27v0a.25.25,0,0,1,.31-.24h0l0-.14c0-.09,0-.14-.08-.15s-.09.05-.1.12v0l-.11,0v0a.2.2,0,0,1,.23-.21c.15,0,.18.12.17.25Zm-.08-.3h0c-.11,0-.17,0-.19.16v0c0,.08,0,.15.08.16s.13-.06.14-.2Z" transform="translate(-391.04 -439.17)"/><path class="cls-3" d="M401.51,461.09l.05-1.24h.11l-.05,1.23Z" transform="translate(-391.04 -439.17)"/><path class="cls-3" d="M402.62,459.84l.05,1c0,.1,0,.18,0,.23h-.1a.19.19,0,0,1,0-.08.17.17,0,0,1-.15.11c-.15,0-.2-.11-.21-.28l0-.38c0-.16.05-.26.19-.27a.14.14,0,0,1,.14.06l0-.39Zm-.31.62,0,.36c0,.12,0,.18.11.18s.12-.1.11-.23v-.3c0-.1,0-.19-.13-.19S402.3,460.35,402.31,460.46Z" transform="translate(-391.04 -439.17)"/><path class="cls-3" d="M403,460.62l0,.15c0,.09,0,.19.14.17s.09-.08.08-.17h.11c0,.11,0,.27-.18.29s-.24-.09-.26-.27l-.05-.34c0-.14,0-.29.19-.31s.23.1.25.25,0,.15,0,.2Zm.21-.12,0-.12c0-.08,0-.17-.13-.16s-.1.09-.09.19l0,.11Z" transform="translate(-391.04 -439.17)"/><path class="cls-3" d="M403.85,459.81l-.19,0,0-.1.48-.11,0,.1-.18,0,.25,1.05-.11,0Z" transform="translate(-391.04 -439.17)"/><path class="cls-3" d="M404.47,460.32l0,.14c0,.09.07.18.16.15s.08-.1.06-.18h0l.11,0h0c0,.11.05.26-.13.32s-.25,0-.3-.23l-.1-.33c0-.13,0-.28.13-.33s.25.06.29.21a1.06,1.06,0,0,1,.06.19Zm.19-.16,0-.11c0-.08-.06-.16-.15-.14s-.09.11-.06.21l0,.11Z" transform="translate(-391.04 -439.17)"/><path class="cls-3" d="M405,459.94l-.11-.24.1,0a.2.2,0,0,1,0,.08.15.15,0,0,1,.1-.15.13.13,0,0,1,.17,0,.17.17,0,0,1,.11-.16c.08,0,.17,0,.24.13l.27.65-.11,0-.26-.63c0-.06-.06-.11-.13-.08s-.07.12,0,.21l.24.58-.1,0-.26-.62c0-.09-.08-.12-.14-.09s-.06.12,0,.22l.24.57-.11,0Z" transform="translate(-391.04 -439.17)"/><path class="cls-3" d="M406.45,459.78l.07.13-.09,0a.15.15,0,0,1,0-.06.16.16,0,0,1-.09.14c-.11.06-.21,0-.28-.13v0a.25.25,0,0,1,.12-.37l0,0-.07-.13c0-.08-.08-.12-.14-.08s-.06.09,0,.16l0,0-.1,0v0a.19.19,0,0,1,.07-.3c.14-.07.22,0,.28.11Zm-.24-.2,0,0c-.09,0-.12.12-.06.24h0c0,.08.09.12.16.09s.07-.12,0-.24Z" transform="translate(-391.04 -439.17)"/><path class="cls-3" d="M406.68,459.51l0,0c.05.08.1.1.16.07s.06-.1,0-.17-.09-.1-.21-.1-.23,0-.29-.13a.2.2,0,0,1,.05-.3c.13-.09.22,0,.29.08l0,0-.1.06,0,0c-.05-.07-.09-.1-.15-.06s-.05.08,0,.15.08.07.19.08a.3.3,0,0,1,.31.14c.09.14.08.25,0,.33a.21.21,0,0,1-.31-.08l0,0Z" transform="translate(-391.04 -439.17)"/><path class="cls-3" d="M407.47,459h0c.09.13.14.25,0,.36s-.24,0-.34-.12l-.21-.29c-.09-.12-.12-.25,0-.35s.24,0,.31.08l0,0-.09.07v0c-.05-.07-.11-.13-.18-.08s-.05.11,0,.2l.22.31c0,.07.12.14.19.09s0-.1,0-.2v0Z" transform="translate(-391.04 -439.17)"/><path class="cls-3" d="M408,458.64l.1.12-.08.06-.05-.05a.16.16,0,0,1-.06.17c-.1.08-.21,0-.3-.08h0a.25.25,0,0,1,0-.39l0,0-.09-.12c-.06-.06-.11-.09-.16-.05s0,.11,0,.16l0,0-.09.07,0,0c-.08-.1-.11-.21,0-.31s.21-.06.3,0Zm-.27-.14,0,0c-.09.06-.1.14,0,.24h0c.06.07.12.11.18.06s0-.13-.05-.24Z" transform="translate(-391.04 -439.17)"/><path class="cls-3" d="M408.34,458.57l-.84-.9.09-.08.84.9Z" transform="translate(-391.04 -439.17)"/><path class="cls-3" d="M408.8,457.91l.11.1-.08.07-.05,0a.15.15,0,0,1,0,.17c-.09.09-.21.05-.31,0h0a.25.25,0,0,1,0-.39l0,0-.11-.11c-.06-.05-.11-.08-.16,0s0,.11,0,.16v0l-.07.08,0,0a.2.2,0,0,1,0-.31c.1-.11.21-.07.3,0Zm-.29-.12,0,0a.16.16,0,0,0,0,.25h0c.07.06.13.09.18,0s0-.13-.07-.23Z" transform="translate(-391.04 -439.17)"/><path class="cls-3" d="M409.12,457.65l.29.24-.07.09-.72-.6-.2-.17.07-.08.08.06a.15.15,0,0,1,0-.2c.08-.09.18-.08.32,0l.29.24c.15.13.17.24.1.33A.16.16,0,0,1,409.12,457.65Zm0-.3-.29-.24c-.09-.08-.15-.07-.19,0s0,.16.08.24l.22.18c.08.07.18.13.25.05S409.21,457.42,409.12,457.35Z" transform="translate(-391.04 -439.17)"/><path class="cls-3" d="M409.67,456.82l.12.08-.06.09-.07,0a.15.15,0,0,1,0,.17c-.08.11-.2.08-.31,0h0a.24.24,0,0,1-.06-.39l0,0-.12-.09c-.07-.05-.12-.07-.16,0s0,.11.05.16h0l-.07.09h0a.21.21,0,0,1-.06-.31.19.19,0,0,1,.3,0Zm-.3-.08,0,0c-.06.09-.06.16.05.24h0c.07.05.14.07.18,0s0-.14-.1-.22Z" transform="translate(-391.04 -439.17)"/><path class="cls-2" d="M391.6,446.53l.51-.71a.77.77,0,0,1,1.18-.1c.36.26.44.52.41.69a.87.87,0,0,1,.94.17.89.89,0,0,1,.34,1.31l-.51.7Zm1.59.21c.18-.26.11-.41-.14-.59s-.44-.15-.59.05l-.15.22.73.53Zm1.18,1.15.18-.25c.15-.21.1-.42-.22-.65s-.54-.24-.74,0l-.15.2Z" transform="translate(-391.04 -439.17)"/><path class="cls-2" d="M395.43,446l.51.74-.37.35-2-3,.48-.46,2.93,2.08-.39.38-.71-.55Zm0-.8-1.22-.92h0c.2.26.51.7.88,1.25Z" transform="translate(-391.04 -439.17)"/><path class="cls-2" d="M397.08,444.47c.17.23.39.4.61.27s.2-.35.06-.58-.34-.33-.76-.32a1.08,1.08,0,0,1-1.14-.55.84.84,0,0,1,.2-1.24c.55-.34,1,0,1.22.43l-.43.26c-.12-.17-.31-.4-.54-.26s-.16.29,0,.5.27.27.66.25a1.22,1.22,0,0,1,1.25.61.89.89,0,0,1-.23,1.33c-.57.34-1,0-1.3-.44Z" transform="translate(-391.04 -439.17)"/><path class="cls-2" d="M400.08,442.29c.39,1.23.29,1.85-.34,2s-1.05-.25-1.44-1.49-.21-1.81.36-2S399.71,441.12,400.08,442.29Zm-1.28.39c.25.8.5,1.24.79,1.15s.25-.56,0-1.39-.47-1.16-.77-1.07S398.56,441.93,398.8,442.68Zm1.43,1,.61.29-.14.51-.77-.37Z" transform="translate(-391.04 -439.17)"/><path class="cls-2" d="M401.36,440.41l.06,2.43c0,.29.07.63.39.63s.36-.3.35-.64l-.05-2.44h.51l.06,2.45c0,.63-.18,1.15-.87,1.17s-.9-.47-.91-1.13l-.06-2.44Z" transform="translate(-391.04 -439.17)"/><path class="cls-2" d="M404.83,442.78l-.9-.21-.24,1,1,.24-.19.52-1.44-.34.82-3.44,1.43.34-.12.54-.95-.22-.19.83.89.21Z" transform="translate(-391.04 -439.17)"/><path class="cls-2" d="M406.56,442l-.55-.28.25-.49,1.56.78-.25.49-.55-.27-1.33,2.66-.46-.23Z" transform="translate(-391.04 -439.17)"/><path class="cls-2" d="M408.67,442.56l.68.55a.76.76,0,0,1,0,1.18c-.28.35-.55.41-.72.37.1.2.12.51-.22.93a.89.89,0,0,1-1.33.26l-.67-.54Zm-1.52,2.68.24.19c.2.16.42.13.67-.18s.27-.52,0-.74l-.19-.15Zm1.22-1.11c.25.2.41.13.6-.1s.18-.44,0-.6l-.2-.16-.57.7Z" transform="translate(-391.04 -439.17)"/><path class="cls-2" d="M410.54,446.87c-1,.82-1.61,1-2,.45s-.16-1.07.85-1.9,1.6-.87,2-.41S411.48,446.08,410.54,446.87Zm-.85-1.05c-.65.54-1,.93-.77,1.17s.62,0,1.29-.54.9-.87.7-1.11S410.29,445.32,409.69,445.82Z" transform="translate(-391.04 -439.17)"/><path class="cls-2" d="M412.42,446.59l.26.45-2.58,1.5.49.85-.49.23-.73-1.25Z" transform="translate(-391.04 -439.17)"/><circle class="cls-2" cx="10.96" cy="12.56" r="6.75"/><path class="cls-4" d="M403.45,447.48a1.14,1.14,0,0,0,.08-.62c-.12-.88-1.3-1.26-1.43-1.3a3.37,3.37,0,0,0-2.28.26,6.29,6.29,0,0,0-2.28,1.48,8.46,8.46,0,0,1,3.5-.42A8.6,8.6,0,0,1,403.45,447.48Z" transform="translate(-391.04 -439.17)"/><path class="cls-4" d="M403.81,447.59a1.56,1.56,0,0,0,0-1.15c-.36-.76-1.49-.89-1.46-1a3.78,3.78,0,0,1,1.84.37,7.11,7.11,0,0,1,1.35.7,3.5,3.5,0,0,1-.54,1.75Z" transform="translate(-391.04 -439.17)"/><path class="cls-4" d="M405.36,448.5a8.68,8.68,0,0,0,.29-.93,8.94,8.94,0,0,0,.14-.89,4.72,4.72,0,0,1,1.08,1,4.63,4.63,0,0,1,.65,1.05.93.93,0,0,0-.5,0,1.08,1.08,0,0,0-.7.7Z" transform="translate(-391.04 -439.17)"/><path class="cls-4" d="M406.54,449.61a.75.75,0,0,1,.73-.69.74.74,0,0,1,.55.38,6.59,6.59,0,0,1,.39,1.55,6.76,6.76,0,0,1-.15,2.55,5.37,5.37,0,0,0-1.52-3.79Z" transform="translate(-391.04 -439.17)"/><path class="cls-4" d="M406.4,449.93c-.07.24-.17.59-.26,1a27.49,27.49,0,0,0-.21,2.91,5.18,5.18,0,0,1-.86,2.76,3.79,3.79,0,0,1-1.29,1.07,5.7,5.7,0,0,0,2.45-1.24A5.82,5.82,0,0,0,407.9,454a5.53,5.53,0,0,0-.38-2.28A5.32,5.32,0,0,0,406.4,449.93Z" transform="translate(-391.04 -439.17)"/><path class="cls-4" d="M406.14,449.64l-.93-.82c-.75,1.37-1.44,2.48-2,3.31a17.32,17.32,0,0,1-3.31,4.1,11.46,11.46,0,0,1-1.16.87,6.3,6.3,0,0,0,1.74.73A6.49,6.49,0,0,0,403,458a4.23,4.23,0,0,0,1.71-1.28,4.64,4.64,0,0,0,.88-2.05c.35-1.53,0-2.13.36-4C406,450.21,406.08,449.87,406.14,449.64Z" transform="translate(-391.04 -439.17)"/><path class="cls-4" d="M403.69,447.92l1.19.65c-.66,1.32-1.29,2.39-1.78,3.17a17.72,17.72,0,0,1-2.92,3.81,13.34,13.34,0,0,1-1.68,1.39,5.77,5.77,0,0,1-1.46-1.31,5.89,5.89,0,0,1-1-1.79,2.93,2.93,0,0,1,.15-.81c.12-.33.51-1.26,3-2.45a20.22,20.22,0,0,0,3-1.4A8.13,8.13,0,0,0,403.69,447.92Z" transform="translate(-391.04 -439.17)"/><path class="cls-4" d="M403.34,447.78a8,8,0,0,0-4.68-.53,7.31,7.31,0,0,0-1.64.55,6.63,6.63,0,0,0-1.11,2.37,6.72,6.72,0,0,0,0,3.11,4.08,4.08,0,0,1,.53-1.18c.67-1,1.95-1.56,4.48-2.65a6.42,6.42,0,0,0,2.3-1.55Z" transform="translate(-391.04 -439.17)"/><path class="cls-3" d="M405.47,446.47a3.75,3.75,0,0,1-.14.7,3.32,3.32,0,0,1-.39.84l-1.08-.6a1,1,0,0,1-.05.18l1.21.68a3.85,3.85,0,0,0,.38-.85,3.49,3.49,0,0,0,.15-.9Z" transform="translate(-391.04 -439.17)"/><path class="cls-3" d="M407.4,448.51a.91.91,0,0,0-.41,0,1.07,1.07,0,0,0-.71.71l-.87-.78-.06.14,1,.86a1.07,1.07,0,0,1,.7-.71.91.91,0,0,1,.5.05Z" transform="translate(-391.04 -439.17)"/><path class="cls-3" d="M407.83,451a5.4,5.4,0,0,0-1.16-1.68,1,1,0,0,1,0-.17,1,1,0,0,0-.18.42,5.17,5.17,0,0,1,1.12,1.71,5.37,5.37,0,0,1,.41,2.08,6.32,6.32,0,0,0,.17-1A5.29,5.29,0,0,0,407.83,451Z" transform="translate(-391.04 -439.17)"/><path class="cls-3" d="M407.52,451.68a5.32,5.32,0,0,0-1.12-1.75l-.06.21a5.72,5.72,0,0,1,.92,1.54,4.69,4.69,0,0,1,.38,2.28,5.13,5.13,0,0,1-1.67,2.51,5.76,5.76,0,0,1-1.94,1.1l-.25.14a5.82,5.82,0,0,0,2.45-1.24,5.68,5.68,0,0,0,1.66-2.51A5.32,5.32,0,0,0,407.52,451.68Z" transform="translate(-391.04 -439.17)"/><path class="cls-3" d="M405.79,449.34c0,.15-.08.33-.12.53-.36,1.88,0,2.47-.36,4a4.69,4.69,0,0,1-.88,2.05,4,4,0,0,1-1.71,1.27,4.18,4.18,0,0,1-2.44-.13,7.94,7.94,0,0,1-1-.34c-.21.15-.38.28-.53.37a6.3,6.3,0,0,0,1.74.73A6.49,6.49,0,0,0,403,458a4.23,4.23,0,0,0,1.71-1.28,4.69,4.69,0,0,0,.88-2.05c.35-1.54,0-2.13.36-4,.09-.42.18-.77.24-1Z" transform="translate(-391.04 -439.17)"/><path class="cls-3" d="M403.1,451.35a18,18,0,0,1-2.92,3.81,13.34,13.34,0,0,1-1.68,1.39,5.77,5.77,0,0,1-1.46-1.31,5.66,5.66,0,0,1-.93-1.71c0,.11,0,.22,0,.3a5.92,5.92,0,0,0,1,1.8,5.77,5.77,0,0,0,1.46,1.31,13.34,13.34,0,0,0,1.68-1.39,18,18,0,0,0,2.92-3.81c.49-.78,1.12-1.85,1.78-3.17l-.16-.08C404.12,449.67,403.55,450.63,403.1,451.35Z" transform="translate(-391.04 -439.17)"/><path class="cls-3" d="M402.64,447.51l0,0a6.6,6.6,0,0,1-2.3,1.55c-2.53,1.09-3.82,1.65-4.49,2.65l-.09.15a7.64,7.64,0,0,0,.18,1.39,4.08,4.08,0,0,1,.53-1.18c.67-1,1.95-1.56,4.48-2.65a6.42,6.42,0,0,0,2.3-1.55l.12-.12C403.15,447.7,402.91,447.6,402.64,447.51Z" transform="translate(-391.04 -439.17)"/><path class="cls-3" d="M403.53,446.86a1,1,0,0,0-.15-.41,1.28,1.28,0,0,1-.08.59,8,8,0,0,0-2.42-.6,8.49,8.49,0,0,0-2.5.14,7.37,7.37,0,0,0-.84.72,8.46,8.46,0,0,1,3.5-.42,8.6,8.6,0,0,1,2.41.6A1.16,1.16,0,0,0,403.53,446.86Z" transform="translate(-391.04 -439.17)"/></svg>